<svg width="24" height="24" viewBox="0 0 24 24" fill="none" xmlns="http://www.w3.org/2000/svg">
<path d="M13.5772 22.6457L12.5658 23.04C12.201 23.1768 11.7991 23.1768 11.4344 23.04L10.4229 22.6457C7.86106 21.6414 5.66057 19.8896 4.10749 17.618C2.55441 15.3465 1.72057 12.6603 1.71436 9.9086V5.14289C3.65577 5.41958 5.63588 5.16752 7.44606 4.41328C9.25625 3.65903 10.8295 2.43052 12.0001 0.857178C14.1429 3.97718 17.6915 5.45146 22.2858 5.14289V9.9086C22.2796 12.6603 21.4457 15.3465 19.8926 17.618C18.3396 19.8896 16.1391 21.6414 13.5772 22.6457Z" stroke="#949494" stroke-linecap="round" stroke-linejoin="round"/>
<path d="M8.57153 11.9999L9.94296 13.7142L15.4287 10.2856" stroke="#949494" stroke-linecap="round"/>
</svg>
