<svg width="24" height="24" viewBox="0 0 24 24" fill="none" xmlns="http://www.w3.org/2000/svg">
<path d="M14.0249 3.47014L15.7101 6.70264C15.8355 6.94059 16.0154 7.14546 16.2352 7.30046C16.455 7.45547 16.7084 7.55619 16.9746 7.59439L20.5341 8.08189C22.4376 8.34439 23.1756 10.6911 21.7679 11.9961L19.3304 14.2454C19.1226 14.4363 18.9666 14.6768 18.8771 14.9444C18.7875 15.2119 18.7672 15.4978 18.8181 15.7754L19.4129 19.0739C19.7436 20.9114 17.8319 22.3439 16.1541 21.5039L12.7521 19.8164C12.5179 19.7018 12.2606 19.6422 11.9999 19.6422C11.7391 19.6422 11.4818 19.7018 11.2476 19.8164L7.84563 21.5039C6.16713 22.3364 4.25613 20.9114 4.58688 19.0739L5.18163 15.7746C5.28663 15.2121 5.09163 14.6346 4.67013 14.2446L2.23188 11.9961C0.82413 10.6986 1.56213 8.34364 3.46563 8.08114L7.02513 7.59364C7.29214 7.55782 7.54655 7.45804 7.76671 7.30278C7.98686 7.14752 8.16626 6.94138 8.28963 6.70189L9.97563 3.47014C10.8336 1.84264 13.1736 1.84264 14.0241 3.47014H14.0249Z" fill="#CACACA"/>
</svg>
